<svg width="88" height="88" viewBox="0 0 88 88" fill="none" xmlns="http://www.w3.org/2000/svg">
<g clip-path="url(#clip0_2008_71)">
<path d="M71.0655 59.6162C66.2921 72.7062 53.7335 81.4992 39.8115 81.4992C21.4445 81.4992 6.49952 66.5542 6.49952 48.1872C6.49952 34.2652 15.2925 21.7072 28.3825 16.9372C28.8278 16.7771 29.195 16.5114 29.5075 16.1989C30.3395 15.3669 30.6794 14.1091 30.2458 12.9294C29.656 11.3083 27.8591 10.4724 26.238 11.0661C10.695 16.7341 0.25 31.6521 0.25 48.1871C0.25 70.0031 17.996 87.7491 39.812 87.7491C56.347 87.7491 71.265 77.3041 76.937 61.7571C77.5307 60.136 76.6948 58.3391 75.0737 57.7493C73.894 57.3157 72.6362 57.6556 71.8042 58.4876C71.4878 58.804 71.2257 59.1709 71.0655 59.6162Z" fill="black"/>
<path d="M39.7969 0.25C38.0703 0.25 36.6719 1.6484 36.6719 3.375V48.203C36.6719 49.9296 38.0703 51.328 39.7969 51.328H84.6249C86.3515 51.328 87.7499 49.9296 87.7499 48.203C87.7499 21.762 66.2379 0.25 39.7969 0.25ZM42.9219 6.6172C63.4299 8.1445 79.8559 24.5702 81.3829 45.0782H42.9219V6.6172Z" fill="black"/>
</g>
<defs>
<clipPath id="clip0_2008_71">
<rect width="88" height="88" fill="white"/>
</clipPath>
</defs>
</svg>
