<svg xmlns="http://www.w3.org/2000/svg" xmlns:xlink="http://www.w3.org/1999/xlink" fill="black" version="1.1" x="0px" y="0px" viewBox="7 8 85 85" style="enable-background:new 7 8 85 85;" xml:space="preserve">
    <g>
        <path d="M40.9,21.5H20.9c-1.2,0-2.1,1-2.1,2.1v20.1c0,1.2,1,2.1,2.1,2.1h20.1c1.2,0,2.1-1,2.1-2.1V23.6   C43.1,22.4,42.1,21.5,40.9,21.5z M38.8,41.5H23V25.7h15.8V41.5z"/>
        <path d="M40.9,78.5c1.2,0,2.1-1,2.1-2.1V56.3c0-1.2-1-2.1-2.1-2.1H20.9c-1.2,0-2.1,1-2.1,2.1v20.1c0,1.2,1,2.1,2.1,2.1H40.9z    M23,58.5h15.8v15.8H23V58.5z"/>
        <path d="M48.7,27.9c0,1.2,1,2.1,2.1,2.1h28.3c1.2,0,2.1-1,2.1-2.1s-1-2.1-2.1-2.1H50.8C49.6,25.7,48.7,26.7,48.7,27.9z"/>
        <path d="M79.1,37.2H50.8c-1.2,0-2.1,1-2.1,2.1c0,1.2,1,2.1,2.1,2.1h28.3c1.2,0,2.1-1,2.1-2.1C81.2,38.2,80.3,37.2,79.1,37.2z"/>
        <path d="M79.1,58.5H50.8c-1.2,0-2.1,1-2.1,2.1c0,1.2,1,2.1,2.1,2.1h28.3c1.2,0,2.1-1,2.1-2.1C81.2,59.4,80.3,58.5,79.1,58.5z"/>
        <path d="M81.2,72.1c0-1.2-1-2.1-2.1-2.1H50.8c-1.2,0-2.1,1-2.1,2.1c0,1.2,1,2.1,2.1,2.1h28.3C80.3,74.3,81.2,73.3,81.2,72.1z"/>
    </g>
</svg>